#!OML:ASF H:\Terrain\Patient Classification 1\Walking\steve\steve.ASF
:FULLY-SPECIFIED
:DEGREES
236
root 7.68175 15.8962 18.3054 9.45787 -12.4738 -7.91767
lowerback -1.30401 8.26156 7.0256
upperback -2.91588 11.029 0.755667
thorax -1.1492 5.40376 -2.92111
lowerneck -10.6779 -1.47665 -1.22106
upperneck 11.8886 -1.98157 1.37075
head 5.36094 -0.924507 0.475171
rclavicle 9.00898e-015 -5.71506e-015
rhumerus 19.9913 1.68229 -75.4711
rradius 36.6114
rwrist -15.1404
rhand -23.9741 -34.1683
rfingers 7.12502
rthumb 2.50239 -64.1333
lclavicle 9.00898e-015 -5.71506e-015
lhumerus -88.4684 12.4973 -10.6822
lradius 10.1169
lwrist -50.8458
lhand -20.8758 -9.61857
lfingers 7.12502
lthumb 5.49425 20.2902
rfemur 14.449 3.14658 26.0518
rtibia 15.6932
rfoot 4.26829 24.1954
rtoes 18.3983
lfemur -43.0041 -0.952663 -4.31309
ltibia 14.7401
lfoot -18.3676 10.8289
ltoes -11.4857
237
root 7.69862 15.8302 18.5523 9.92408 -12.4896 -8.72554
lowerback -1.11587 8.33761 7.62935
upperback -3.37268 11.1731 0.779347
thorax -1.61246 5.43706 -3.27429
lowerneck -10.5048 -1.52337 -1.26082
upperneck 12.1085 -2.05951 1.49332
head 5.40309 -0.955717 0.51457
rclavicle 3.4924e-014 -9.34288e-015
rhumerus 19.5543 1.24191 -75.6062
rradius 37.3141
rwrist -15.1133
rhand -21.2945 -36.1459
rfingers 7.12502
rthumb 5.09001 -66.0648
lclavicle 3.4924e-014 -9.34288e-015
lhumerus -87.8862 11.2703 -9.1071
lradius 10.6203
lwrist -46.4885
lhand -20.7824 -8.9576
lfingers 7.12502
lthumb 5.58442 20.9488
rfemur 14.7033 4.00193 26.9439
rtibia 16.2587
rfoot 4.70992 23.1588
rtoes 16.3586
lfemur -43.575 -0.374952 -3.68269
ltibia 15.2775
lfoot -17.2638 10.8623
ltoes -12.2606
238
root 7.70484 15.7996 18.8238 9.59811 -12.7395 -7.81668
lowerback -0.768364 8.38323 6.39118
upperback -3.61106 11.2667 0.421281
thorax -2.19552 5.48373 -3.07668
lowerneck -10.6602 -1.66109 -1.71664
upperneck 12.6682 -2.26622 2.11622
head 5.61993 -1.02988 0.765495
rclavicle 2.79106e-014 2.32578e-014
rhumerus 19.0795 1.09401 -75.4384
rradius 37.8488
rwrist -15.5956
rhand -19.9388 -37.8709
rfingers 7.12502
rthumb 6.39891 -67.7543
lclavicle 2.79106e-014 2.32578e-014
lhumerus -87.2502 10.2822 -8.16965
lradius 10.9055
lwrist -43.0535
lhand -20.0374 -7.56711
lfingers 7.12502
lthumb 6.30371 22.3191
rfemur 15.3643 4.74367 25.9933
rtibia 16.9649
rfoot 4.7237 22.3751
rtoes 13.307
lfemur -43.5049 0.14935 -5.29213
ltibia 16.3402
lfoot -17.1193 11.3206
ltoes -17.3042
239
root 7.71538 15.7694 19.1453 9.86464 -12.7459 -7.69302
lowerback -1.7441 8.48984 6.0378
upperback -3.67122 11.3286 0.22024
thorax -1.73572 5.53695 -2.93967
lowerneck -10.7954 -1.78869 -1.69424
upperneck 12.7408 -2.46906 2.29835
head 5.67181 -1.11293 0.801524
rclavicle 1.60736e-013 2.62396e-014
rhumerus 18.8345 1.14818 -75.01
rradius 38.4465
rwrist -16.6843
rhand -20.3536 -39.4898
rfingers 7.12502
rthumb 5.99846 -69.3849
lclavicle 1.60736e-013 2.62396e-014
lhumerus -86.9427 9.92404 -9.12165
lradius 11.0444
lwrist -41.3569
lhand -20.3604 -7.00634
lfingers 7.12502
lthumb 5.99186 22.8889
rfemur 15.738 4.94741 25.6656
rtibia 17.4312
rfoot 4.97906 21.8766
rtoes 10.357
lfemur -44.0609 1.42275 -6.72707
ltibia 18.0423
lfoot -16.4605 10.8679
ltoes -17.9428
240
root 7.72526 15.7463 19.4524 10.2235 -12.8528 -7.58819
lowerback -2.77442 8.59174 5.65866
upperback -3.60146 11.3849 0.0275278
thorax -1.1198 5.59232 -2.75795
lowerneck -11.1337 -1.94502 -1.73416
upperneck 12.53 -2.70907 2.59404
head 5.67299 -1.20861 0.879
rclavicle 1.42566e-014 -4.77083e-015
rhumerus 18.8238 1.07518 -74.7437
rradius 39.0749
rwrist -17.584
rhand -21.2812 -40.271
rfingers 7.12502
rthumb 5.10281 -70.1896
lclavicle 1.42566e-014 -4.77083e-015
lhumerus -86.8349 9.93673 -10.0234
lradius 11.2215
lwrist -39.5613
lhand -20.3158 -7.24788
lfingers 7.12502
lthumb 6.03498 22.6462
rfemur 16.0834 5.62312 25.5301
rtibia 17.5986
rfoot 5.66206 20.7543
rtoes 6.92854
lfemur -45.0565 2.82288 -8.10481
ltibia 20.3232
lfoot -14.7843 11.0791
ltoes -12.5755
241
root 7.73896 15.726 19.7592 10.5171 -12.7794 -7.30716
lowerback -3.60843 8.6011 5.16154
upperback -3.65323 11.3493 -0.205809
thorax -0.761709 5.59124 -2.60633
lowerneck -11.491 -1.9108 -1.74371
upperneck 12.9664 -2.67698 2.66424
head 5.87132 -1.18234 0.901582
rclavicle 5.80079e-014 3.97569e-015
rhumerus 18.5186 0.659139 -74.7535
rradius 39.468
rwrist -17.4367
rhand -19.6495 -38.2307
rfingers 7.12502
rthumb 6.6782 -68.1054
lclavicle 5.80079e-014 3.97569e-015
lhumerus -86.5596 9.75541 -9.97862
lradius 11.483
lwrist -37.509
lhand -19.6832 -6.8605
lfingers 7.12502
lthumb 6.64565 23.0152
rfemur 16.6882 6.36921 25.3061
rtibia 17.6069
rfoot 7.7799 19.1535
rtoes 8.73426
lfemur -46.1899 3.76583 -9.2986
ltibia 22.8618
lfoot -13.0488 11.4524
ltoes -4.524
242
root 7.74494 15.6986 20.0545 10.4369 -13.1861 -8.06373
lowerback -3.13056 8.80479 5.53653
upperback -4.01264 11.6584 -0.125846
thorax -1.31963 5.71818 -2.81479
lowerneck -11.5312 -2.06677 -1.94094
upperneck 13.5477 -2.9038 2.90342
head 6.07345 -1.27945 0.988655
rclavicle 7.05189e-014 9.54166e-015
rhumerus 17.3587 0.776009 -74.6582
rradius 40.3861
rwrist -18.0977
rhand -18.9334 -38.7965
rfingers 7.12502
rthumb 7.36946 -68.6482
lclavicle 7.05189e-014 9.54166e-015
lhumerus -86.048 9.10474 -9.67294
lradius 11.6812
lwrist -35.9362
lhand -19.4844 -5.97308
lfingers 7.12502
lthumb 6.83754 23.8965
rfemur 17.7273 7.85632 26.4028
rtibia 17.5101
rfoot 9.7694 17.0185
rtoes 9.86594
lfemur -46.6928 4.75241 -8.74565
ltibia 25.7104
lfoot -11.9345 11.4422
ltoes 2.72924
243
root 7.75291 15.6979 20.3287 10.596 -12.7237 -7.15164
lowerback -3.05157 8.56735 4.24928
upperback -4.57314 11.3794 -0.493891
thorax -2.13304 5.5766 -2.61119
lowerneck -11.1259 -2.19522 -1.82387
upperneck 13.4768 -3.1045 2.91612
head 5.98523 -1.37419 0.960055
rclavicle -2.65036e-014 -1.86858e-014
rhumerus 16.1743 0.539311 -74.9516
rradius 40.7373
rwrist -17.6053
rhand -18.7354 -38.8869
rfingers 7.12502
rthumb 7.56051 -68.7318
lclavicle -2.65036e-014 -1.86858e-014
lhumerus -85.6566 8.44828 -9.39146
lradius 11.7293
lwrist -34.5103
lhand -19.9741 -5.95793
lfingers 7.12502
lthumb 6.36486 23.9264
rfemur 18.1516 8.19438 25.6901
rtibia 17.206
rfoot 11.4042 14.9335
rtoes 7.40249
lfemur -48.0906 5.01482 -10.2985
ltibia 28.7403
lfoot -10.3348 11.2264
ltoes 7.12538
